<svg xmlns="http://www.w3.org/2000/svg" viewBox="0 0 128 128" fill="none">
  <defs>
    <radialGradient id="bg-glow" cx="50%" cy="50%" r="50%">
      <stop offset="0%" stop-color="#10b981" stop-opacity="0.12"/>
      <stop offset="100%" stop-color="transparent"/>
    </radialGradient>
  </defs>

  <!-- Background -->
  <rect width="128" height="128" rx="28" fill="#0c0c14"/>
  <rect width="128" height="128" rx="28" fill="url(#bg-glow)"/>

  <!-- Left curly brace { -->
  <path d="M38 38 C30 38, 26 42, 26 50 L26 58 C26 62, 22 64, 22 64 C22 64, 26 66, 26 70 L26 78 C26 86, 30 90, 38 90"
    stroke="#34d399" stroke-width="4" stroke-linecap="round" fill="none"/>

  <!-- Right curly brace } -->
  <path d="M90 38 C98 38, 102 42, 102 50 L102 58 C102 62, 106 64, 106 64 C106 64, 102 66, 102 70 L102 78 C102 86, 98 90, 90 90"
    stroke="#34d399" stroke-width="4" stroke-linecap="round" fill="none"/>

  <!-- Top sync arrow (right-pointing) -->
  <line x1="48" y1="54" x2="76" y2="54" stroke="#a7f3d0" stroke-width="3" stroke-linecap="round"/>
  <path d="M71 49 L78 54 L71 59" stroke="#a7f3d0" stroke-width="3" stroke-linecap="round" stroke-linejoin="round" fill="none"/>

  <!-- Bottom sync arrow (left-pointing) -->
  <line x1="80" y1="74" x2="52" y2="74" stroke="#34d399" stroke-width="3" stroke-linecap="round" opacity="0.6"/>
  <path d="M57 69 L50 74 L57 79" stroke="#34d399" stroke-width="3" stroke-linecap="round" stroke-linejoin="round" fill="none" opacity="0.6"/>
</svg>
